<svg xmlns="http://www.w3.org/2000/svg" viewBox="0 0 100 100">
  <defs>
    <linearGradient id="velvet" x1="0%" y1="0%" x2="100%" y2="100%">
      <stop offset="0%" style="stop-color:#9333ea;stop-opacity:1" />
      <stop offset="100%" style="stop-color:#ec4899;stop-opacity:1" />
    </linearGradient>
  </defs>
  <circle cx="50" cy="50" r="45" fill="url(#velvet)"/>
  <path d="M35 30 L35 70 Q35 75 40 75 L60 75 Q65 75 65 70 L65 30 Q65 25 60 25 L40 25 Q35 25 35 30 Z M40 35 L60 35 M40 45 L55 45 M40 55 L50 55" 
        fill="none" stroke="white" stroke-width="3" stroke-linecap="round"/>
  <path d="M32 28 Q30 25 28 28 L28 72 Q28 78 35 78 L65 78 Q72 78 72 72 L72 28 Q70 25 68 28" 
        fill="none" stroke="white" stroke-width="2" stroke-linecap="round" opacity="0.5"/>
</svg>

